<svg class="svg-icon" style="width: 1em; height: 1em;vertical-align: middle;fill: currentColor;overflow: hidden;" viewBox="0 0 1024 1024" version="1.1" xmlns="http://www.w3.org/2000/svg"><path d="M512 929.959184c-230.4 0-417.959184-187.559184-417.959184-417.959184s187.559184-417.959184 417.959184-417.959184 417.959184 187.559184 417.959184 417.959184-187.559184 417.959184-417.959184 417.959184z" fill="#16C4AF" /><path d="M512 715.755102c-46.497959 0-90.383673-6.269388-123.297959-17.240816-55.379592-18.808163-67.395918-47.020408-67.395919-67.918368 0-71.57551 46.497959-135.836735 119.118368-162.481632 7.836735-3.134694 16.718367-1.044898 22.465306 5.22449 13.061224 14.106122 30.82449 21.942857 49.110204 21.942857s35.526531-7.836735 49.110204-21.942857c5.746939-6.269388 14.628571-8.359184 22.465306-5.22449 72.097959 27.167347 119.118367 90.906122 119.118368 162.481632-0.522449 62.693878-102.922449 85.159184-190.693878 85.159184z" fill="#0B9682" /><path d="M512 532.897959c-62.171429 0-112.326531-50.677551-112.326531-112.32653S449.828571 308.244898 512 308.244898s112.326531 50.677551 112.326531 112.326531S574.171429 532.897959 512 532.897959z" fill="#DCFFFA" /></svg>